<svg xmlns="http://www.w3.org/2000/svg" viewBox="0 0 128 128" role="img" aria-label="Asterfold mark, monochrome">
  <g fill="currentColor">
    <path d="M64 12 78 49 64 59 50 49Z"/><path d="m116 64-37 14-10-14 10-14Z"/>
    <path d="m64 116-14-37 14-10 14 10Z"/><path d="M12 64 49 50l10 14-10 14Z"/>
    <path d="m101 27-16 36-17-3 3-17Z"/><path d="m101 101-36-16 3-17 17 3Z"/>
    <path d="M27 101 43 65l17 3-3 17Z"/><path d="m27 27 36 16-3 17-17-3Z"/>
    <circle cx="64" cy="64" r="8"/>
  </g>
</svg>
