<svg xmlns="http://www.w3.org/2000/svg" viewBox="0 0 128 128" role="img" aria-label="Asterfold mark">
  <defs>
    <linearGradient id="a" x1="20" y1="16" x2="108" y2="112" gradientUnits="userSpaceOnUse">
      <stop stop-color="#79A8FF"/>
      <stop offset="1" stop-color="#155EEF"/>
    </linearGradient>
  </defs>
  <rect width="128" height="128" rx="28" fill="#F4F7FF"/>
  <g fill="url(#a)">
    <path d="M64 12 78 49 64 59 50 49Z"/>
    <path d="m116 64-37 14-10-14 10-14Z"/>
    <path d="m64 116-14-37 14-10 14 10Z"/>
    <path d="M12 64 49 50l10 14-10 14Z"/>
    <path d="m101 27-16 36-17-3 3-17Z"/>
    <path d="m101 101-36-16 3-17 17 3Z"/>
    <path d="M27 101 43 65l17 3-3 17Z"/>
    <path d="m27 27 36 16-3 17-17-3Z"/>
  </g>
  <circle cx="64" cy="64" r="8" fill="#0B3B9E"/>
</svg>
